# xmcd CD database file
#
# Track frame offsets:
#	150
#	11121
#	23795
#	40485
#	50700
#	60866
#	76849
#	83320
#	92992
#	105457
#
# Disc length: 1550 seconds
#
# Revision: 0
# Processed by: cddbd v1.5.1PL0 Copyright (c) Steve Scherf et al.
# Submitted via: CDex 1.51
#
DISCID=6c060c0a
DTITLE=The Haygoods - The Best of the Haygoods
DYEAR=2005
DGENRE=Country
TTITLE0=Down On the Corner
TTITLE1=All Night Long
TTITLE2=Down in the Valley/Hoedown
TTITLE3=House Down
TTITLE4=Johnny B Goode
TTITLE5=Lets Live it Up
TTITLE6=Matt's Bass Jam
TTITLE7=Not Fade Away
TTITLE8=Soul 2 Soul
TTITLE9=Where Would We Be
EXTD=YEAR: 2005
EXTT0=
EXTT1=
EXTT2=
EXTT3=
EXTT4=
EXTT5=
EXTT6=
EXTT7=
EXTT8=
EXTT9=
PLAYORDER=
